<svg id="Flat" height="512" viewBox="0 0 512 512" width="512" xmlns="http://www.w3.org/2000/svg"><path d="m88 464h-48a24.028 24.028 0 0 1 -24-24v-32a24.028 24.028 0 0 1 24-24h432a8.009 8.009 0 0 0 8-8v-40a8.009 8.009 0 0 0 -8-8h-32v-16h32a24.028 24.028 0 0 1 24 24v40a24.028 24.028 0 0 1 -24 24h-432a8.009 8.009 0 0 0 -8 8v32a8.009 8.009 0 0 0 8 8h48z" fill="#88bf40"/><path d="m80 336v-272h152l24 24 24-24h152v272z" fill="#0093ba"/><path d="m256 336v-248l24-24h152v272z" fill="#88bf40"/><g fill="#7ecce6"><path d="m128 96h16v16h-16z"/><path d="m160 96h64v16h-64z"/><path d="m112 128h112v16h-112z"/><path d="m112 160h112v16h-112z"/><path d="m112 192h112v16h-112z"/><path d="m112 224h112v16h-112z"/><path d="m112 256h96v16h-96z"/></g><path d="m304 96h16v16h-16z" fill="#c5da5d"/><path d="m336 96h64v16h-64z" fill="#c5da5d"/><path d="m288 128h112v16h-112z" fill="#c5da5d"/><path d="m288 160h112v16h-112z" fill="#c5da5d"/><path d="m288 192h112v16h-112z" fill="#c5da5d"/><path d="m288 224h112v16h-112z" fill="#c5da5d"/><path d="m288 256h96v16h-96z" fill="#c5da5d"/><path d="m80 432h328l48 24-48 24h-328a24 24 0 0 1 -24-24 24 24 0 0 1 24-24z" fill="#0093ba"/><path d="m104 432h32v48h-32z" fill="#88bf40"/><path d="m408 432 48 24-48 24z" fill="#047fa7"/><path d="m56 328v-24h128l16 16h112l16-16h128v24a24 24 0 0 1 -24 24h-352a24 24 0 0 1 -24-24z" fill="#ccdce5"/><path d="m176 24h192v16h-192z" fill="#ccdce5"/><path d="m384 24h16v16h-16z" fill="#ccdce5"/></svg>