<?xml version="1.0" encoding="iso-8859-1"?>
<!-- Generator: Adobe Illustrator 19.0.0, SVG Export Plug-In . SVG Version: 6.00 Build 0)  -->
<svg version="1.1" id="Capa_1" xmlns="http://www.w3.org/2000/svg" xmlns:xlink="http://www.w3.org/1999/xlink" x="0px" y="0px"
	 viewBox="0 0 436.767 436.767" style="enable-background:new 0 0 436.767 436.767;" xml:space="preserve">
<g>
	<path style="fill:#F4B844;" d="M218.384,0c120.61,0,218.384,97.774,218.384,218.384s-97.774,218.384-218.384,218.384
		S0,338.994,0,218.384C0,97.774,97.774,0,218.384,0C218.384,0,218.384,0,218.384,0z"/>
	<circle style="fill:#FEDB41;" cx="218.384" cy="218.384" r="164.571"/>
	<path style="fill:#F4B844;" d="M254.955,283.167c-25.663,9.779-54.673,3.65-74.188-15.673c-3.714-3.842-7.039-8.042-9.927-12.539
		h78.89c5.771,0,10.449-4.678,10.449-10.449s-4.678-10.449-10.449-10.449h-87.249c-1.56-6.849-2.088-13.893-1.567-20.898h94.041
		c5.771,0,10.449-4.678,10.449-10.449c0-5.771-4.678-10.449-10.449-10.449h-89.339c3.745-8.447,8.865-16.215,15.151-22.988
		c19.514-19.324,48.525-25.452,74.188-15.673c5.471,1.837,11.395-1.11,13.231-6.58c1.679-5.003-0.635-10.472-5.394-12.75
		c-46.548-18.028-98.898,5.092-116.926,51.64c-0.809,2.089-1.54,4.208-2.192,6.352h-8.882c-5.771,0-10.449,4.678-10.449,10.449
		c0,5.771,4.678,10.449,10.449,10.449h5.224c-0.435,6.983-0.084,13.993,1.045,20.898h-6.269c-5.771,0-10.449,4.678-10.449,10.449
		s4.678,10.449,10.449,10.449h13.061c4.292,10.147,10.5,19.371,18.286,27.167c17.073,17.002,40.167,26.578,64.261,26.645
		c11.093-0.061,22.077-2.187,32.392-6.269c5.205-2.491,7.405-8.731,4.914-13.936C265.427,283.802,259.958,281.488,254.955,283.167z"
		/>
</g>
<g>
</g>
<g>
</g>
<g>
</g>
<g>
</g>
<g>
</g>
<g>
</g>
<g>
</g>
<g>
</g>
<g>
</g>
<g>
</g>
<g>
</g>
<g>
</g>
<g>
</g>
<g>
</g>
<g>
</g>
</svg>
